<?xml version="1.0" encoding="UTF-8" standalone="no"?><!DOCTYPE svg PUBLIC "-//W3C//DTD SVG 1.1//EN" "http://www.w3.org/Graphics/SVG/1.1/DTD/svg11.dtd"><svg width="100%" height="100%" viewBox="0 0 950 200" version="1.1" xmlns="http://www.w3.org/2000/svg" xmlns:xlink="http://www.w3.org/1999/xlink" xml:space="preserve" xmlns:serif="http://www.serif.com/" style="fill-rule:evenodd;clip-rule:evenodd;stroke-linejoin:round;stroke-miterlimit:1.41421;"><g><path d="M97.713,35.897c-1.761,-1.402 -3.918,-2.103 -6.466,-2.103c-2.552,0 -4.739,0.701 -6.56,2.103c-1.823,1.408 -3.4,3.321 -4.737,5.744l-76.152,133.223l26.417,0l60.119,-106.808l29.513,52.065l-40.627,0l-10.928,19.714l62.67,0l19.857,35.029l27.871,0l-76.33,-133.223c-1.341,-2.423 -2.888,-4.336 -4.647,-5.744" style="fill:#000080;fill-rule:nonzero;"/><path d="M216.038,34.751l-23.134,0l0,139.155l112.217,0l0,-24.305l-89.083,0l0,-114.85Z" style="fill:#000080;fill-rule:nonzero;"/><path d="M344.836,34.751l-23.138,0l0,139.155l112.222,0l0,-24.305l-89.084,0l0,-114.85Z" style="fill:#000080;fill-rule:nonzero;"/><path d="M568.908,111.508c0,7.016 -0.812,13.017 -2.456,17.993c-1.64,4.974 -4.315,9.063 -8.015,12.248c-3.707,3.192 -8.651,5.52 -14.846,6.986c-6.197,1.468 -13.848,2.199 -22.958,2.199c-9.107,0 -16.763,-0.731 -22.954,-2.199c-6.19,-1.466 -11.142,-3.794 -14.844,-6.986c-3.709,-3.185 -6.379,-7.274 -8.017,-12.248c-1.644,-4.976 -2.46,-10.977 -2.46,-17.993l0,-77.714l-23.868,0l0,77.714c0,10.719 1.336,20.068 4.011,28.039c2.669,7.98 6.86,14.581 12.571,19.811c5.704,5.236 13.081,9.126 22.134,11.676c9.043,2.554 19.945,3.83 32.695,3.83c12.873,0 23.838,-1.276 32.89,-3.83c9.039,-2.55 16.425,-6.44 22.131,-11.676c5.712,-5.23 9.898,-11.831 12.576,-19.811c2.666,-7.971 4.003,-17.32 4.003,-28.039l0,-77.714l-22.593,0l0,77.714Z" style="fill:#000080;fill-rule:nonzero;"/><path d="M748.445,114.664c4.798,-7.847 7.196,-17.574 7.196,-29.19c0,-7.782 -1.092,-14.798 -3.281,-21.052c-2.183,-6.254 -5.34,-11.584 -9.469,-15.984c-4.132,-4.404 -9.175,-7.784 -15.122,-10.148c-5.951,-2.358 -12.689,-3.538 -20.219,-3.538l-95.102,0l0,139.154l22.959,0l0,-114.846l72.143,0c8.015,0 14.241,2.203 18.671,6.604c4.428,4.403 6.645,11.133 6.645,20.194c0,9.062 -2.124,15.982 -6.37,20.77c-4.25,4.781 -10.568,7.176 -18.946,7.176l-55.202,0l0,21.439l49.552,0l33.52,38.663l32.787,0l-39.894,-42.299c8.627,-3.451 15.334,-9.092 20.132,-16.943" style="fill:#000080;fill-rule:nonzero;"/><path d="M869.861,41.641c-1.33,-2.423 -2.884,-4.336 -4.641,-5.743c-1.759,-1.403 -3.917,-2.103 -6.465,-2.103c-2.552,0 -4.742,0.7 -6.563,2.103c-1.823,1.407 -3.397,3.32 -4.732,5.743l-76.15,133.223l26.416,0l60.118,-106.808l29.513,52.065l-40.628,0l-10.934,19.714l62.671,0l19.86,35.029l27.875,0l-76.34,-133.223Z" style="fill:#000080;fill-rule:nonzero;"/></g></svg>