<svg version="1" xmlns="http://www.w3.org/2000/svg" width="2133.333" height="2133.333" viewBox="0 0 1600.000000 1600.000000"><path d="M802.9 219.5c-.2.2-4.2.5-8.9.6-17.4.4-35.5 6.3-49.7 16.1-9.3 6.5-22.8 19.7-30.4 30-4.4 6-45 72.3-56.9 92.9-.8 1.5-9.1 15.3-18.5 30.8-9.3 15.5-17.4 28.9-18 29.9-2.3 4-23.1 38.5-24.7 41-1 1.5-2.2 3.6-2.7 4.7-.6 1.1-18.7 31.5-40.5 67.5-43.5 72.3-67.3 111.8-69.6 115.9-.8 1.4-4 6.6-7 11.6-3 4.9-6.2 10.2-7 11.7-.8 1.4-12.7 21.3-26.5 44.2-28 46.4-32.4 53.8-47.9 79.8-6 10.1-12.3 20.5-14.1 23.3-1.8 2.7-3.4 5.5-3.6 6-.3.8-17.1 28.7-27.9 46.5-.5.8-3.9 6.4-7.5 12.5-3.6 6-6.9 11.7-7.4 12.5-1.7 2.7-23.6 39-24.6 40.8-.5 1-2.3 4-4 6.7-1.6 2.8-3.4 5.8-4 6.8-.5 1-11.6 19.4-24.6 41-46.6 77.3-203.3 338.3-204.6 340.7-.7 1.4-7.2 12.2-14.4 24s-13.3 22.1-13.6 22.7c-.4 1 22.7 1.3 113.5 1.3h114.1l7.2-12.3c4-6.7 23.9-40.3 44.2-74.7 20.3-34.4 37.8-63.9 38.7-65.5 1-1.7 12.5-21.2 25.7-43.5 52.4-88.6 80.1-135.2 89.2-150.7 5.3-9 15.9-26.9 23.6-39.9 7.7-13.1 15-25.4 16.2-27.5 1.3-2.1 11.8-20 23.4-39.6 11.7-19.7 27-45.7 34.2-57.7 7.1-12.1 13.7-23.2 14.6-24.7.9-1.5 4.3-7.3 7.6-12.9 3.3-5.6 6.8-11.5 7.8-13.1.9-1.7 7-11.9 13.4-22.7 27.4-46.5 36.5-61.8 37.4-63.2 5.4-9.1 12.6-21.2 14.2-24 1-1.9 7.7-13.2 14.7-25 13.7-23.2 37.4-63.3 50.3-85 4.4-7.4 8.8-14.9 9.7-16.5 3.9-6.7 47.3-80 47.5-80.3.3-.3 29.7 48.5 34.1 56.3.6 1.1 3.6 6.2 6.7 11.4 3.2 5.1 5.7 9.5 5.7 9.8 0 .2.8 1.6 1.9 3.1 1.8 2.6 40.8 68.1 45 75.4 1.1 2.1 3.1 5.4 4.5 7.5 1.3 2.1 11.1 18.4 21.7 36.3s25.3 42.6 32.7 55c7.4 12.4 14.3 23.9 15.3 25.7 1 1.7 4.4 7.6 7.7 13 9.2 15.2 47.5 79.6 48.7 81.8.6 1.1 4.3 7.2 8.1 13.5s7.4 12.3 7.9 13.3c.6.9 4.2 7.1 8.2 13.7 3.9 6.6 6.6 12 6 12.1-.7 0-79.7.1-175.5.1l-174.4.1-2.2 3.6c-1.3 2-5.7 9.4-9.8 16.6-4.1 7.1-12.4 21.3-18.3 31.5s-11.5 19.8-12.5 21.5c-16.6 28.7-20.5 35.4-22.1 37.7-1.1 1.5-1.9 2.9-1.9 3.2 0 .2-3.4 6.1-7.5 13.1-4.1 6.9-7.5 12.8-7.5 13 0 .1-1.7 3.2-3.8 6.6-2.1 3.5-5 8.4-6.4 10.9l-2.6 4.5h270.6c266.5 0 270.6 0 272.4 1.9 1 1.1 1.8 2.4 1.8 2.8 0 .5.9 2.1 1.9 3.6 2.7 3.8 40.4 67.3 41.3 69.5.4 1 1.9 3.3 3.3 5.1 1.4 1.8 2.5 3.5 2.5 3.9 0 .3 6 10.6 13.3 22.9 7.4 12.2 22.7 38 34.1 57.3 11.5 19.2 21.6 36.2 22.7 37.7 1 1.5 1.9 2.9 1.9 3.1 0 .3 3.9 6.9 8.7 14.8 4.7 7.9 9.1 15.3 9.7 16.4 1.6 3 15 25.4 22.6 38l6.7 11 120.6.3 120.6.2-3.7-6.1c-2-3.3-4.6-7.6-5.7-9.5-1.1-1.9-5.3-9-9.4-15.7-13.4-22-36.2-59.7-38-63-1-1.8-19.1-31.8-40.1-66.7-21.1-34.9-42.2-69.9-46.9-77.8-4.7-7.8-9.4-15.5-10.3-17-.9-1.5-2.3-3.8-3.1-5.2-1.3-2.4-30.5-50.9-55.3-92-8.4-13.9-48.3-80.2-55.4-92-.5-.8-3.9-6.3-7.5-12.3-3.6-5.9-6.5-10.9-6.5-11.2 0-.2-1.3-2.3-2.9-4.7-1.5-2.4-3.9-6.2-5.2-8.5-1.3-2.3-7.3-12.3-13.4-22.4-6-10-12.1-20.1-13.5-22.4-1.4-2.3-7.4-12.4-13.5-22.4-6-10-11.7-19.4-12.6-20.9-.9-1.5-13-21.6-26.9-44.7-25.5-42.3-34.6-57.5-36.5-60.7-.5-1-10.7-17.8-22.5-37.4-11.8-19.6-22.5-37.3-23.6-39.3-1.2-2-9.9-16.4-19.4-32.1-9.5-15.7-18.4-30.5-19.8-33-1.4-2.5-3.3-5.6-4.3-7-1.8-2.7-31-51.3-34.2-57-1-1.9-2.5-4.2-3.3-5.1-.8-.8-1.4-1.8-1.4-2.1 0-.4-3.2-5.9-7.1-12.4-3.9-6.4-30.9-51.1-59.8-99.3-29-48.2-55.5-92.1-58.8-97.6-24.8-40.6-50.5-59.8-84.7-63.1-3.3-.3-6.4-.8-6.7-1-.3-.2-.8-.2-1 .1z"/></svg>