<svg version="1" xmlns="http://www.w3.org/2000/svg" width="533.333" height="533.333" viewBox="0 0 400.000000 400.000000"><path d="M192.5 42.1c-7 2-12.3 9.1-25 33.4-4.3 8.2-9.2 17.7-11 21-1.8 3.3-6 11.4-9.5 18-3.4 6.6-8 15.1-10 19-2 3.8-6.3 11.9-9.5 18-11.1 21.1-23 43.7-29.5 56-2 3.8-7.4 14.2-12 23s-8.6 16.4-9 17c-.4.5-4.2 7.7-8.5 16-4.3 8.2-9.4 18.1-11.5 22-16.8 31.5-38 72.3-38 73.1 0 .5 8.1.8 19.2.7 10.6-.1 22.9-.2 27.3-.3 7.3 0 8.1-.2 9-2.3 1.4-2.8 22.3-43.5 28-54.2 2.3-4.4 7.8-15 12.2-23.5 13-25.1 23.2-44.8 28.8-55.5 2.9-5.5 9.7-18.6 15.1-29 5.4-10.5 13.8-26.7 18.6-36 4.9-9.4 11.4-22.1 14.6-28.3 3.1-6.1 5.9-11.2 6.2-11.2.3 0 3.2 5.1 6.4 11.2 3.2 6.2 7.5 14.4 9.6 18.3 2 3.8 7.4 14.2 12 23 4.5 8.8 9.9 19.1 12 23 6.1 11.5 21 40.3 21 40.7 0 .2-18.1.4-40.2.3-22.2 0-41.2.1-42.3.3-1.4.3-3.4 3.3-6.6 9.6-2.5 5-7.4 14.6-10.8 21.4-3.5 6.8-6.1 12.6-5.8 12.9.3.3 29.5.5 64.9.5h64.4l6.8 13.1c3.8 7.3 9 17.2 11.6 22.2 2.6 4.9 7.6 14.4 11 21 3.4 6.6 7.5 14.5 9.1 17.5l2.9 5.5 18.8-.2c10.3-.1 23.3-.2 28.9-.2l10.1-.1-5.5-10.2c-3-5.7-8.6-16.4-12.5-23.8-3.9-7.4-8.3-15.8-9.8-18.5-2.7-4.9-8.6-16.1-19-36-8.3-15.8-16-30.5-19.5-37-1.8-3.3-5.6-10.5-8.5-16-2.9-5.5-7.4-14.2-10.1-19.3-2.7-5-7.1-13.4-9.8-18.5-2.7-5-8.7-16.4-13.4-25.2-4.6-8.8-11.5-21.9-15.2-29-3.7-7.2-8-15.3-9.5-18-1.5-2.8-5.3-10-8.5-16-21.5-41.2-23.6-44.4-31.1-48.4-4.1-2.2-11.3-2.7-16.9-1z"/></svg>