<svg version="1" xmlns="http://www.w3.org/2000/svg" width="1066.667" height="1066.667" viewBox="0 0 800.000000 800.000000"><path d="M388.7 147.7c-5.5 1.9-13.3 8.4-17.9 15-3.3 4.9-233.8 434.1-233.8 435.5 0 .4 17.9.8 39.8.8h39.7L306 429.4c49.2-93.3 90-170.3 90.5-171 .7-1.1 12 19.2 44.7 80.8l43.8 82.3-60.7.5-60.7.5-16.3 31c-8.9 17-16.2 31.3-16.2 31.7-.1.5 42.3.9 94.1 1l94.1.3 29.8 56 29.8 56 42.1.3c23.1.1 42-.2 42-.6 0-2-232.6-433.2-236.2-438-7.8-10.2-15.5-14.2-26.6-14.1-3.7 0-8.9.7-11.5 1.6z"/></svg>